Coordinates
version=1
nRows=21
nColumns=22
inDegrees=yes

Units are S.I. units (second, meters, Newtons, ...)
If the header above contains a line with 'inDegrees', this indicates whether rotational values are in degrees (yes) or radians (no).

endheader
time	pelvis_tilt	pelvis_list	pelvis_rotation	pelvis_tx	pelvis_ty	pelvis_tz	hip_flexion_r	hip_adduction_r	hip_rotation_r	knee_angle_r	ankle_angle_r	subtalar_angle_r	hip_flexion_l	hip_adduction_l	hip_rotation_l	knee_angle_l	ankle_angle_l	subtalar_angle_l	lumbar_extension	lumbar_bending	lumbar_rotation
      1.40000000	      2.04603811	     -1.23021993	      3.39928526	      0.66684269	      1.08416914	     -0.30910368	      1.71932568	      3.19385524	     -4.47438086	    -13.08418979	      8.52190321	     -7.28278188	      7.33104004	     -2.95290249	      0.09842013	    -24.56517202	     12.01932647	      3.99835057	     -5.57695101	     -0.84325678	     -5.80615476
      1.41000000	      1.98900087	     -1.28034682	      3.48324504	      0.66396870	      1.08401156	     -0.30829626	      1.97177854	      3.27973380	     -4.55772837	    -13.11861390	      8.38307264	     -7.34508280	      7.77292364	     -3.01153571	      0.42084075	    -25.07399603	     12.29858510	      4.21764349	     -5.73911142	     -0.78634842	     -5.77376403
      1.42000000	      1.92338178	     -1.34655251	      3.55456887	      0.66102937	      1.08380842	     -0.30753815	      2.23479242	      3.37709670	     -4.63333014	    -13.14604045	      8.23902163	     -7.40897349	      8.22712494	     -3.08083270	      0.74731164	    -25.66424339	     12.64545316	      4.44200435	     -5.88421660	     -0.71279919	     -5.73221585
      1.43000000	      1.85257175	     -1.42094595	      3.61000034	      0.65804605	      1.08357082	     -0.30681350	      2.50040576	      3.47906801	     -4.70248374	    -13.16167958	      8.09668771	     -7.47385569	      8.69191163	     -3.15637459	      1.05735619	    -26.36263093	     13.05611775	      4.63848253	     -6.00986210	     -0.63767546	     -5.67709836
      1.44000000	      1.83896175	     -1.54315151	      3.66190274	      0.65503359	      1.08340684	     -0.30613448	      2.68488859	      3.63529422	     -4.75958985	    -13.12932708	      7.92189775	     -7.51723076	      9.10787294	     -3.28559971	      1.35601248	    -27.19458349	     13.46048270	      4.68945157	     -6.18717029	     -0.50604933	     -5.63066633
      1.45000000	      1.77044780	     -1.65465083	      3.69080467	      0.65197543	      1.08315503	     -0.30547102	      2.93659108	      3.77218127	     -4.81868856	    -13.10887417	      7.75289489	     -7.57711386	      9.59286888	     -3.39946138	      1.62957704	    -28.18178288	     13.87283168	      4.70507870	     -6.28149093	     -0.40369080	     -5.56741412
      1.46000000	      1.76907796	     -1.80467412	      3.70162206	      0.64889473	      1.08302075	     -0.30483194	      3.09271000	      3.95636691	     -4.83868037	    -13.03397605	      7.54297154	     -7.61552575	     10.01023330	     -3.55740343	      1.89533286	    -29.32018894	     14.21781113	      4.59832759	     -6.43490447	     -0.25701634	     -5.49090216
      1.47000000	      1.73747756	     -1.95224937	      3.69049683	      0.64577873	      1.08285159	     -0.30421189	      3.28217443	      4.13366857	     -4.85479572	    -12.95656002	      7.32774076	     -7.66067626	     10.46571148	     -3.70873593	      2.14341576	    -30.62345908	     14.51431314	      4.40129146	     -6.53338717	     -0.12618177	     -5.40931780
      1.48000000	      1.69320620	     -2.09582569	      3.65474893	      0.64262414	      1.08266558	     -0.30362026	      3.48826224	      4.30266042	     -4.87044938	    -12.88038244	      7.13456184	     -7.71191381	     10.93826091	     -3.85415745	      2.36564036	    -32.09012059	     14.73304304	      4.08491563	     -6.59694128	     -0.00757206	     -5.31862047
      1.49000000	      1.68289781	     -2.25423866	      3.59794821	      0.63943520	      1.08255622	     -0.30304549	      3.64224506	      4.49126166	     -4.84927157	    -12.76713978	      6.89709916	     -7.74841594	     11.36007404	     -4.01115873	      2.60172236	    -33.68032931	     14.86439095	      3.71121700	     -6.68379055	      0.12288090	     -5.22445752
      1.50000000	      1.71287464	     -2.42414665	      3.51608439	      0.63621561	      1.08252072	     -0.30249167	      3.74204661	      4.69547668	     -4.79508451	    -12.62635698	      6.61213257	     -7.77013128	     11.71573013	     -4.17544035	      2.85137167	    -35.37427549	     14.94921330	      3.34544366	     -6.80188332	      0.26337045	     -5.11871072
      1.51000000	      1.68261058	     -2.58829634	      3.42320644	      0.63291236	      1.08237712	     -0.30200157	      3.92446300	      4.88331589	     -4.74995575	    -12.51621789	      6.39475668	     -7.80540324	     12.12718977	     -4.31893712	      3.10605639	    -37.17170166	     14.88368881	      2.81453085	     -6.83708392	      0.39249709	     -5.02584798
      1.52000000	      1.68434036	     -2.75700071	      3.30342335	      0.62954535	      1.08229034	     -0.30150784	      4.06401366	      5.07934170	     -4.67722947	    -12.37966933	      6.12716520	     -7.82454426	     12.46268664	     -4.46267257	      3.37078561	    -39.00484688	     14.77202807	      2.32972988	     -6.90438778	      0.51877349	     -4.93274670
      1.53000000	      1.68762897	     -2.93412103	      3.16916166	      0.62612120	      1.08219347	     -0.30106256	      4.20117346	      5.28156916	     -4.58994899	    -12.23745586	      5.85656835	     -7.83388095	     12.75558244	     -4.60439363	      3.64925981	    -40.85421463	     14.61128248	      1.87327431	     -6.96207206	      0.65338208	     -4.83781382
      1.54000000	      1.68410218	     -3.10758656	      3.01459555	      0.62261471	      1.08207406	     -0.30064999	      4.35058253	      5.47684882	     -4.48859600	    -12.09760691	      5.57524545	     -7.83384813	     13.00696209	     -4.73524652	      3.92130825	    -42.68598483	     14.39396652	      1.44625284	     -7.00745712	      0.78032249	     -4.75175235
      1.55000000	      1.70295405	     -3.28646847	      2.84015820	      0.61904833	      1.08198474	     -0.30026432	      4.46869070	      5.67826085	     -4.36391416	    -11.93839079	      5.24699284	     -7.82191961	     13.17337376	     -4.86997806	      4.18181901	    -44.46136281	     14.15849940	      1.14593893	     -7.07032711	      0.91176106	     -4.66662424
      1.56000000	      1.68775279	     -3.45763001	      2.65113379	      0.61537832	      1.08181497	     -0.29991803	      4.63530230	      5.86617201	     -4.23640332	    -11.79526089	      4.95056501	     -7.80421776	     13.32196683	     -4.98667570	      4.43788978	    -46.17136223	     13.85986771	      0.86221430	     -7.09177333	      1.03083798	     -4.58486970
      1.57000000	      1.65995131	     -3.62023092	      2.44565399	      0.61161279	      1.08160761	     -0.29961859	      4.82061907	      6.04162573	     -4.10111457	    -11.65632605	      4.66620492	     -7.77948159	     13.41971598	     -5.08692347	      4.68198149	    -47.78166575	     13.52846489	      0.66822142	     -7.09641796	      1.13832679	     -4.50735358
      1.58000000	      1.62840596	     -3.77627133	      2.23023881	      0.60776626	      1.08137065	     -0.29937515	      5.01282187	      6.20709109	     -3.95638636	    -11.51790698	      4.37809837	     -7.74860975	     13.45701593	     -5.17601906	      4.91016939	    -49.27749123	     13.16458253	      0.60418461	     -7.08957804	      1.24062976	     -4.43887138
      1.59000000	      1.56953429	     -3.92318893	      2.00673303	      0.60380372	      1.08105974	     -0.29918850	      5.24778399	      6.35842888	     -3.81698339	    -11.39666953	      4.11854204	     -7.70811674	     13.46429547	     -5.24790276	      5.12773651	    -50.64852185	     12.76237197	      0.71025091	     -7.05055794	      1.33340112	     -4.38776975
      1.60000000	      1.53798345	     -4.06749396	      1.77316203	      0.59976697	      1.08078304	     -0.29905902	      5.44418198	      6.50751815	     -3.65644669	    -11.25149179	      3.80455423	     -7.67036719	     13.36831515	     -5.31470189	      5.32498926	    -51.86027632	     12.33165327	      0.96005470	     -7.03869090	      1.42656390	     -4.34656046
